<svg xmlns="http://www.w3.org/2000/svg" viewBox="0 0 256 256" id="Christmas-Tree--Streamline-Twemoji" height="256" width="256">
  <desc>
    Christmas Tree Streamline Emoji: https://streamlinehq.com
  </desc>
  <path fill="#662113" d="M153.68817777777778 234.17528888888887c0 14.185955555555553 -11.5008 19.264711111111108 -25.686755555555553 19.264711111111108s-25.686755555555553 -5.078755555555555 -25.686755555555553 -19.264711111111108l6.4220444444444444 -57.79555555555555c0 -14.178844444444444 5.078755555555555 -12.843377777777777 19.264711111111108 -12.843377777777777s19.26542222222222 -1.3354666666666666 19.26542222222222 12.843377777777777l6.421333333333333 57.79555555555555Z" stroke-width="7.1111"></path>
  <path fill="#5c913b" d="M214.08355555555553 197.5559111111111c-44.7104 -38.303288888888886 -62.81742222222222 -93.14275555555555 -86.08213333333333 -93.14275555555555S86.6304 159.25973333333334 41.919999999999995 197.5559111111111c-18.788977777777777 16.09671111111111 -9.838933333333332 25.40942222222222 15.918933333333332 23.541333333333334 22.958933333333334 -1.6554666666666666 44.43306666666667 -6.862222222222222 70.16248888888889 -6.862222222222222s47.21066666666667 5.206755555555555 70.15537777777777 6.862222222222222c25.764977777777776 1.8680888888888887 34.70862222222222 -7.451733333333333 15.926755555555555 -23.541333333333334Z" stroke-width="7.1111"></path>
  <path fill="#3e721d" d="M199.56337777777776 182.3751111111111c-34.36017777777778 -31.504355555555552 -53.66755555555555 -76.62648888888889 -71.56195555555554 -76.62648888888889 -17.879466666666666 0 -37.19466666666666 45.12213333333333 -71.55484444444444 76.62648888888889 -27.305955555555556 25.033244444444446 35.78097777777777 30.652444444444445 71.55484444444444 0 35.75964444444444 30.659555555555553 98.86151111111111 25.033244444444446 71.56195555555554 0Z" stroke-width="7.1111"></path>
  <path fill="#5c913b" d="M199.56337777777776 156.85191111111112c-34.36017777777778 -29.430044444444444 -53.66755555555555 -71.58328888888889 -71.56195555555554 -71.58328888888889 -17.879466666666666 0 -37.19466666666666 42.15324444444445 -71.55484444444444 71.58328888888889 -27.305955555555556 23.384888888888888 35.78097777777777 28.63502222222222 71.55484444444444 0 35.75964444444444 28.642133333333334 98.86151111111111 23.384888888888888 71.56195555555554 0Z" stroke-width="7.1111"></path>
  <path fill="#3e721d" d="M183.86488888888888 135.95306666666667c-26.81671111111111 -22.980266666666665 -41.89013333333333 -55.8912 -55.86346666666667 -55.8912 -13.9584 0 -29.039644444444445 32.903822222222225 -55.86275555555555 55.8912 -21.310577777777777 18.256355555555555 27.931733333333334 22.3552 55.86275555555555 0 27.91751111111111 22.34808888888889 77.18115555555555 18.256355555555555 55.86346666666667 0Z" stroke-width="7.1111"></path>
  <path fill="#5c913b" d="M183.86488888888888 116.82986666666667c-26.81671111111111 -22.980266666666665 -41.89013333333333 -55.88408888888888 -55.86346666666667 -55.88408888888888 -13.9584 0 -29.039644444444445 32.903822222222225 -55.86275555555555 55.88408888888888 -21.310577777777777 18.263466666666663 27.931733333333334 22.3552 55.86275555555555 0 27.91751111111111 22.3552 77.18115555555555 18.263466666666663 55.86346666666667 0Z" stroke-width="7.1111"></path>
  <path fill="#3e721d" d="M173.0816 99.84497777777777c-21.6448 -18.54008888888889 -33.81333333333333 -45.1008 -45.087288888888885 -45.1008 -11.266133333333332 0 -23.434666666666665 26.56071111111111 -45.08657777777778 45.1008 -17.20462222222222 14.740622222222223 22.5472 18.043733333333332 45.08657777777778 0 22.5472 18.043733333333332 62.29902222222222 14.740622222222223 45.087288888888885 0Z" stroke-width="7.1111"></path>
  <path fill="#5c913b" d="M173.0816 85.4535111111111c-21.6448 -18.540799999999997 -33.81333333333333 -45.10151111111111 -45.087288888888885 -45.10151111111111 -11.266133333333332 0 -23.434666666666665 26.56071111111111 -45.08657777777778 45.10151111111111 -17.20462222222222 14.73991111111111 22.5472 18.043022222222223 45.08657777777778 0 22.5472 18.043022222222223 62.29902222222222 14.73991111111111 45.087288888888885 0Z" stroke-width="7.1111"></path>
  <path fill="#3e721d" d="M162.30542222222223 64.26311111111112c-16.466488888888886 -14.107733333333332 -25.72231111111111 -34.31751111111111 -34.303999999999995 -34.31751111111111 -8.573866666666666 0 -17.8368 20.209777777777777 -34.3104 34.31751111111111 -13.091555555555555 11.216355555555554 17.155555555555555 13.731555555555556 34.3104 0 17.148444444444443 13.731555555555556 47.40266666666667 11.216355555555554 34.303999999999995 0Z" stroke-width="7.1111"></path>
  <path fill="#5c913b" d="M162.30542222222223 56.59804444444444c-16.466488888888886 -14.114844444444444 -25.72231111111111 -34.324622222222224 -34.303999999999995 -34.324622222222224 -8.573866666666666 0 -17.8368 20.209777777777777 -34.3104 34.324622222222224 -13.091555555555555 11.217066666666666 17.155555555555555 13.731555555555556 34.3104 0 17.148444444444443 13.724444444444444 47.40266666666667 11.209955555555554 34.303999999999995 0Z" stroke-width="7.1111"></path>
  <path fill="#ffcc4d" d="M103.33795555555555 86.50453333333333c0 8.202666666666666 8.879644444444443 13.329066666666666 15.982933333333332 9.22808888888889 3.297422222222222 -1.9036444444444443 5.327644444444444 -5.4208 5.327644444444444 -9.22808888888889 0 -8.202666666666666 -8.878933333333332 -13.329066666666666 -15.982933333333332 -9.22808888888889 -3.296711111111111 1.9036444444444443 -5.327644444444444 5.42151111111111 -5.327644444444444 9.22808888888889" stroke-width="7.1111"></path>
  <path fill="#ffcc4d" d="M124.64853333333333 178.5536c-0.024177777777777774 10.93688888888889 11.800177777777778 17.798399999999997 21.283555555555555 12.35128888888889 4.420977777777778 -2.5393777777777773 7.142399999999999 -7.252622222222222 7.131022222222221 -12.35128888888889 0.024888888888888887 -10.93688888888889 -11.799466666666666 -17.79911111111111 -21.282844444444443 -12.35128888888889 -4.421688888888889 2.5393777777777773 -7.143111111111111 7.252622222222222 -7.131733333333332 12.35128888888889" stroke-width="7.1111"></path>
  <path fill="#dd2e44" d="M138.8558222222222 111.06915555555554c0 13.671111111111111 14.799644444444443 22.21511111111111 26.638933333333334 15.37991111111111 5.494755555555556 -3.1729777777777777 8.879644444444443 -9.035377777777777 8.879644444444443 -15.37991111111111 0 -13.671111111111111 -14.799644444444443 -22.21511111111111 -26.638933333333334 -15.37991111111111 -5.494755555555556 3.1722666666666663 -8.879644444444443 9.035377777777777 -8.879644444444443 15.37991111111111" stroke-width="7.1111"></path>
  <path fill="#dd2e44" d="M53.61279999999999 185.6568888888889c-0.024888888888888887 10.93688888888889 11.799466666666666 17.79911111111111 21.282844444444443 12.352 4.421688888888889 -2.5393777777777773 7.143111111111111 -7.253333333333333 7.131022222222221 -12.352 0.024888888888888887 -10.936177777777777 -11.799466666666666 -17.798399999999997 -21.282844444444443 -12.35128888888889 -4.420977777777778 2.5393777777777773 -7.142399999999999 7.253333333333333 -7.131022222222221 12.35128888888889" stroke-width="7.1111"></path>
  <path fill="#a6d388" d="M82.02666666666666 135.93173333333334c-0.024177777777777774 10.93688888888889 11.800177777777778 17.798399999999997 21.283555555555555 12.35128888888889 4.420977777777778 -2.5393777777777773 7.142399999999999 -7.252622222222222 7.131022222222221 -12.35128888888889 0.024888888888888887 -10.93688888888889 -11.799466666666666 -17.798399999999997 -21.282844444444443 -12.35128888888889 -4.421688888888889 2.5393777777777773 -7.143111111111111 7.252622222222222 -7.131733333333332 12.35128888888889" stroke-width="7.1111"></path>
  <path fill="#a6d388" d="M167.2704 164.3463111111111c-0.024177777777777774 10.93688888888889 11.800177777777778 17.798399999999997 21.283555555555555 12.35128888888889 4.420977777777778 -2.5393777777777773 7.142399999999999 -7.252622222222222 7.131022222222221 -12.35128888888889 0.024888888888888887 -10.93688888888889 -11.799466666666666 -17.79911111111111 -21.283555555555555 -12.35128888888889 -4.420977777777778 2.5393777777777773 -7.142399999999999 7.252622222222222 -7.131022222222221 12.35128888888889" stroke-width="7.1111"></path>
  <path fill="#ffac33" d="M134.44480000000001 12.8896c1.0154666666666667 1.9534222222222222 3.636622222222222 3.8997333333333333 5.8033777777777775 4.3264000000000005l9.796266666666666 1.9107555555555553c2.1667555555555555 0.42595555555555553 2.6780444444444442 2.060088888888889 1.1292444444444443 3.636622222222222l-6.983111111111111 7.1324444444444435c-1.5409777777777778 1.5772444444444442 -2.592711111111111 4.667022222222222 -2.3153777777777775 6.8551111111111105l1.2074666666666667 9.902222222222223c0.2702222222222222 2.1952 -1.1292444444444443 3.1822222222222223 -3.1111111111111107 2.202311111111111l-8.929422222222222 -4.440177777777778c-1.9818666666666667 -0.9799111111111111 -5.2423111111111105 -1.0225777777777778 -7.24551111111111 -0.09173333333333333l-9.05031111111111 4.219022222222223c-2.0032 0.9237333333333332 -3.381333333333333 -0.09955555555555555 -3.054222222222222 -2.2869333333333333l1.4556444444444443 -9.874488888888889c0.31999999999999995 -2.1802666666666664 -0.6464 -5.292088888888888 -2.144711111111111 -6.911288888888889l-6.812444444444444 -7.295999999999999c-1.506133333333333 -1.612088888888889 -0.9592888888888887 -3.2462222222222223 1.2216888888888888 -3.6081777777777773l9.838222222222221 -1.6625777777777777c2.1809777777777777 -0.36195555555555553 4.837688888888889 -2.2449777777777773 5.910755555555555 -4.177066666666667l4.836977777777777 -8.73031111111111c1.0730666666666666 -1.9320888888888887 2.7989333333333333 -1.9107555555555553 3.815111111111111 0.042666666666666665l4.631466666666666 8.851199999999999Z" stroke-width="7.1111"></path>
</svg>